<svg width="234" height="72" viewBox="0 0 234 72" fill="none" xmlns="http://www.w3.org/2000/svg">
<path d="M222.421 48.1094L218.782 51.3262C217.505 49.5449 216.204 48.6543 214.88 48.6543C214.235 48.6543 213.708 48.8301 213.298 49.1816C212.888 49.5215 212.683 49.9082 212.683 50.3418C212.683 50.7754 212.829 51.1855 213.122 51.5723C213.521 52.0879 214.722 53.1953 216.726 54.8945C218.601 56.4648 219.737 57.4551 220.136 57.8652C221.132 58.873 221.835 59.8398 222.245 60.7656C222.667 61.6797 222.878 62.6816 222.878 63.7715C222.878 65.8926 222.146 67.6445 220.681 69.0273C219.216 70.4102 217.306 71.1016 214.95 71.1016C213.11 71.1016 211.505 70.6504 210.134 69.748C208.774 68.8457 207.608 67.4277 206.636 65.4941L210.767 62.998C212.009 65.2832 213.438 66.4258 215.056 66.4258C215.899 66.4258 216.608 66.1797 217.183 65.6875C217.757 65.1953 218.044 64.627 218.044 63.9824C218.044 63.3965 217.827 62.8105 217.394 62.2246C216.96 61.6387 216.005 60.7422 214.528 59.5352C211.716 57.2383 209.899 55.4688 209.079 54.2266C208.259 52.9727 207.849 51.7246 207.849 50.4824C207.849 48.6895 208.528 47.1543 209.888 45.877C211.259 44.5879 212.946 43.9434 214.95 43.9434C216.239 43.9434 217.464 44.2422 218.624 44.8398C219.796 45.4375 221.062 46.5273 222.421 48.1094Z" fill="#BEBEBE"/>
<path d="M188.319 44.5938H193.54C196.399 44.5938 198.433 44.8516 199.64 45.3672C200.858 45.8711 201.837 46.7148 202.575 47.8984C203.313 49.082 203.683 50.4824 203.683 52.0996C203.683 53.7988 203.272 55.2227 202.452 56.3711C201.644 57.5078 200.419 58.3691 198.778 58.9551L204.896 70.4512H199.517L193.698 59.5H193.241V70.4512H188.319V44.5938ZM193.241 54.7012H194.788C196.358 54.7012 197.437 54.4961 198.022 54.0859C198.62 53.6758 198.919 52.9961 198.919 52.0469C198.919 51.4844 198.772 50.998 198.479 50.5879C198.187 50.166 197.794 49.8672 197.302 49.6914C196.81 49.5039 195.907 49.4102 194.595 49.4102H193.241V54.7012Z" fill="#BEBEBE"/>
<path d="M169.265 44.5938H183.38V49.4102H174.151V54.0859H183.38V58.8145H174.151V65.6172H183.38V70.4512H169.265V44.5938Z" fill="black"/>
<path d="M164.923 49.1465L161.478 52.4336C159.134 49.9609 156.497 48.7246 153.567 48.7246C151.095 48.7246 149.009 49.5684 147.31 51.2559C145.622 52.9434 144.778 55.0234 144.778 57.4961C144.778 59.2188 145.153 60.748 145.903 62.084C146.653 63.4199 147.714 64.4688 149.085 65.2305C150.456 65.9922 151.979 66.373 153.655 66.373C155.085 66.373 156.392 66.1094 157.575 65.582C158.759 65.043 160.06 64.0703 161.478 62.6641L164.817 66.1445C162.907 68.0078 161.103 69.3027 159.403 70.0293C157.704 70.7441 155.765 71.1016 153.585 71.1016C149.565 71.1016 146.272 69.8301 143.706 67.2871C141.151 64.7324 139.874 61.4629 139.874 57.4785C139.874 54.9004 140.454 52.6094 141.614 50.6055C142.786 48.6016 144.456 46.9902 146.624 45.7715C148.804 44.5527 151.147 43.9434 153.655 43.9434C155.788 43.9434 157.839 44.3945 159.808 45.2969C161.788 46.1992 163.493 47.4824 164.923 49.1465Z" fill="black"/>
<path d="M114.526 44.5938H119.237L130.329 61.6094V44.5938H135.251V70.4512H130.522L119.448 53.4883V70.4512H114.526V44.5938Z" fill="black"/>
<path d="M95.7881 44.5938H109.903V49.4102H100.675V54.0859H109.903V58.8145H100.675V65.6172H109.903V70.4512H95.7881V44.5938Z" fill="black"/>
<path d="M72.5322 44.5938H77.4717V61.3281C77.4717 62.7695 77.5947 63.7891 77.8408 64.3867C78.0986 64.9844 78.5146 65.4648 79.0889 65.8281C79.6748 66.1797 80.3779 66.3555 81.1982 66.3555C82.0654 66.3555 82.8096 66.1562 83.4307 65.7578C84.0635 65.3594 84.4971 64.8555 84.7314 64.2461C84.9775 63.625 85.1006 62.4473 85.1006 60.7129V44.5938H90.04V60.0098C90.04 62.6113 89.8936 64.416 89.6006 65.4238C89.3076 66.4316 88.7451 67.4043 87.9131 68.3418C87.0928 69.2793 86.1436 69.9766 85.0654 70.4336C83.9873 70.8789 82.7334 71.1016 81.3037 71.1016C79.4287 71.1016 77.7939 70.6738 76.3994 69.8184C75.0166 68.9512 74.0264 67.873 73.4287 66.584C72.8311 65.2832 72.5322 63.0918 72.5322 60.0098V44.5938Z" fill="black"/>
<path d="M56.8525 44.5938H61.7744V65.7578H68.9463V70.4512H56.8525V44.5938Z" fill="black"/>
<path d="M39.626 44.5938H52.458V49.3926H44.4951V54.0859H52.458V58.8145H44.4951V70.4512H39.626V44.5938Z" fill="black"/>
<path d="M12.9248 44.5938H17.6357L28.7275 61.6094V44.5938H33.6494V70.4512H28.9209L17.8467 53.4883V70.4512H12.9248V44.5938Z" fill="black"/>
<path d="M2.46582 44.5938H7.35254V70.4512H2.46582V44.5938Z" fill="black"/>
<path d="M212.507 0.59375H217.218L228.31 17.6094V0.59375H233.231V26.4512H228.503L217.429 9.48828V26.4512H212.507V0.59375Z" fill="black"/>
<path d="M202.048 0.59375H206.935V26.4512H202.048V0.59375Z" fill="black"/>
<path d="M173.589 0.59375H187.704V5.41016H178.476V10.0859H187.704V14.8145H178.476V21.6172H187.704V26.4512H173.589V0.59375Z" fill="black"/>
<path d="M146.396 0.59375H151.458L157.962 18.9629L164.554 0.59375H169.616L160.3 26.4512H155.554L146.396 0.59375Z" fill="black"/>
<path d="M129.644 0.59375H143.759V5.41016H134.53V10.0859H143.759V14.8145H134.53V21.6172H143.759V26.4512H129.644V0.59375Z" fill="black"/>
<path d="M119.185 0.59375H124.071V26.4512H119.185V0.59375Z" fill="black"/>
<path d="M103.681 0.59375H108.603V21.7578H115.774V26.4512H103.681V0.59375Z" fill="black"/>
<path d="M84.96 0.59375H99.0752V5.41016H89.8467V10.0859H99.0752V14.8145H89.8467V21.6172H99.0752V26.4512H84.96V0.59375Z" fill="black"/>
<path d="M64.0596 26.4512V0.59375H68.1201C70.4756 0.59375 72.1982 0.746094 73.2881 1.05078C74.835 1.46094 76.0654 2.22266 76.9795 3.33594C77.8936 4.44922 78.3506 5.76172 78.3506 7.27344C78.3506 8.25781 78.1396 9.1543 77.7178 9.96289C77.3076 10.7598 76.6338 11.5098 75.6963 12.2129C77.2666 12.9512 78.415 13.877 79.1416 14.9902C79.8682 16.0918 80.2314 17.3984 80.2314 18.9102C80.2314 20.3633 79.8564 21.6875 79.1064 22.8828C78.3564 24.0781 77.3896 24.9746 76.2061 25.5723C75.0225 26.1582 73.3877 26.4512 71.3018 26.4512H64.0596ZM68.9814 5.28711V10.7363H70.0537C71.249 10.7363 72.1338 10.4844 72.708 9.98047C73.2939 9.47656 73.5869 8.79102 73.5869 7.92383C73.5869 7.11523 73.3115 6.47656 72.7607 6.00781C72.21 5.52734 71.3721 5.28711 70.2471 5.28711H68.9814ZM68.9814 15.1309V21.7578H70.2119C72.251 21.7578 73.6221 21.5 74.3252 20.9844C75.04 20.4688 75.3975 19.7188 75.3975 18.7344C75.3975 17.6211 74.9814 16.7422 74.1494 16.0977C73.3174 15.4531 71.9346 15.1309 70.001 15.1309H68.9814Z" fill="black"/>
<path d="M35.249 0.59375H49.3643V5.41016H40.1357V10.0859H49.3643V14.8145H40.1357V21.6172H49.3643V26.4512H35.249V0.59375Z" fill="black"/>
<path d="M0.848633 0.59375H5.7002L9.42676 17.0996L14.0498 0.59375H18.1455L22.8213 17.0996L26.5127 0.59375H31.3643L25.5459 26.4512H20.8174L16.0537 9.73438L11.3779 26.4512H6.70215L0.848633 0.59375Z" fill="black"/>
<path opacity="0.57" fill-rule="evenodd" clip-rule="evenodd" d="M227.258 53.7447C229.096 56.5019 228.351 60.2271 225.594 62.0652C220.624 65.3789 214.551 65.9899 210.382 66.4094C209.83 66.465 209.311 66.5172 208.832 66.5719C202.285 67.3202 195.737 67.3192 189.593 67.3183C189.381 67.3183 189.168 67.3182 188.956 67.3182C185.643 67.3182 182.956 64.632 182.956 61.3182C182.956 58.0045 185.643 55.3182 188.956 55.3182C189.08 55.3182 189.203 55.3183 189.326 55.3183C195.668 55.3185 201.614 55.3187 207.47 54.6495C208.045 54.5837 208.596 54.5226 209.124 54.4641C213.73 53.9533 216.607 53.6343 218.938 52.0806C221.695 50.2425 225.42 50.9875 227.258 53.7447Z" fill="#BEBEBE"/>
</svg>
