<svg width="54" height="16" viewBox="0 0 54 16" fill="none" xmlns="http://www.w3.org/2000/svg">
<path d="M53.0342 0.147461L52.8408 1.69434H46.7715L46.0732 6.86133H52.1426L51.9492 8.37598H45.8799L44.8379 15.9492H43.2803L45.4072 0.147461H53.0342Z" fill="white"/>
<path d="M42.3242 0.147461L42.0986 1.68359H34.9873L34.2891 6.86133H41.4004L41.1963 8.37598H34.085L33.2793 14.4346H40.3906L40.208 15.9492H31.4961L33.6123 0.147461H42.3242Z" fill="white"/>
<path d="M28.5527 0.147461H30.1426L28.0049 15.9492H26.415L28.5527 0.147461Z" fill="white"/>
<path d="M15.6191 0.147461H19.583C20.9938 0.147461 22.0036 0.283529 22.6123 0.555664C23.221 0.820638 23.7152 1.25033 24.0947 1.84473C24.4743 2.43197 24.6641 3.11589 24.6641 3.89648C24.6641 4.7487 24.4385 5.54004 23.9873 6.27051C23.5433 7.00098 22.9346 7.55241 22.1611 7.9248C21.3877 8.29004 20.3708 8.47266 19.1104 8.47266L23.8799 15.9492H22.0859L17.3271 8.47266H16.0811L15.0605 15.9492H13.4707L15.6191 0.147461ZM17.0049 1.66211L16.2959 6.92578H18.1113C19.4577 6.92578 20.3385 6.87207 20.7539 6.76465C21.4486 6.59277 22.0072 6.25619 22.4297 5.75488C22.8594 5.24642 23.0742 4.62695 23.0742 3.89648C23.0742 3.07292 22.777 2.47493 22.1826 2.10254C21.7243 1.80892 20.9007 1.66211 19.7119 1.66211H17.0049Z" fill="white"/>
<path d="M2.64258 0.147461H4.67285C6.66374 0.147461 8.01009 0.269206 8.71191 0.512695C9.41374 0.749023 9.97949 1.16439 10.4092 1.75879C10.846 2.35319 11.0645 3.05501 11.0645 3.86426C11.0645 4.70931 10.8353 5.46484 10.377 6.13086C9.91862 6.79688 9.30273 7.27669 8.5293 7.57031C9.46029 7.85677 10.1908 8.34733 10.7207 9.04199C11.2507 9.72949 11.5156 10.5459 11.5156 11.4912C11.5156 12.458 11.2865 13.2887 10.8281 13.9834C10.377 14.6781 9.76823 15.1794 9.00195 15.4873C8.23568 15.7952 6.91439 15.9492 5.03809 15.9492H0.537109L2.64258 0.147461ZM4.00684 1.65137L3.29785 6.89355C3.60579 6.9222 3.96387 6.93652 4.37207 6.93652C5.80436 6.93652 6.83561 6.82194 7.46582 6.59277C8.10319 6.36361 8.59733 6.00553 8.94824 5.51855C9.29915 5.02441 9.47461 4.48014 9.47461 3.88574C9.47461 3.1123 9.19889 2.54297 8.64746 2.17773C8.10319 1.80534 6.93945 1.61914 5.15625 1.61914C4.84831 1.61914 4.46517 1.62988 4.00684 1.65137ZM3.10449 8.44043L2.30957 14.4561H4.44727C5.93685 14.4561 6.96094 14.3952 7.51953 14.2734C8.30729 14.0944 8.90169 13.7721 9.30273 13.3066C9.71094 12.834 9.91504 12.2288 9.91504 11.4912C9.91504 10.8324 9.75033 10.2845 9.4209 9.84766C9.09147 9.40365 8.55078 9.0599 7.79883 8.81641C7.04688 8.56575 5.92253 8.44043 4.42578 8.44043H3.10449Z" fill="white"/>
</svg>
