<svg width="133" height="26" viewBox="0 0 133 26" fill="none" xmlns="http://www.w3.org/2000/svg">
<path d="M119.234 1.46484H123.875C126.385 1.46484 128.193 1.69922 129.297 2.16797C130.411 2.6263 131.286 3.3763 131.922 4.41797C132.568 5.44922 132.891 6.6888 132.891 8.13672C132.891 9.74089 132.469 11.0742 131.625 12.1367C130.792 13.1992 129.656 13.9388 128.219 14.3555C127.375 14.5951 125.839 14.7148 123.609 14.7148V24.4492H119.234V1.46484ZM123.609 10.4492H125C126.094 10.4492 126.854 10.3711 127.281 10.2148C127.708 10.0586 128.042 9.80339 128.281 9.44922C128.531 9.08464 128.656 8.64714 128.656 8.13672C128.656 7.2513 128.312 6.60547 127.625 6.19922C127.125 5.89714 126.198 5.74609 124.844 5.74609H123.609V10.4492Z" fill="white"/>
<path d="M103.234 0.886719C106.484 0.886719 109.276 2.0638 111.609 4.41797C113.953 6.77214 115.125 9.64193 115.125 13.0273C115.125 16.3815 113.969 19.2201 111.656 21.543C109.354 23.8659 106.557 25.0273 103.266 25.0273C99.8177 25.0273 96.9531 23.8346 94.6719 21.4492C92.3906 19.0638 91.25 16.2305 91.25 12.9492C91.25 10.7513 91.7812 8.73047 92.8438 6.88672C93.9062 5.04297 95.3646 3.58464 97.2188 2.51172C99.0833 1.42839 101.089 0.886719 103.234 0.886719ZM103.188 5.16797C101.062 5.16797 99.276 5.90755 97.8281 7.38672C96.3802 8.86589 95.6562 10.7461 95.6562 13.0273C95.6562 15.569 96.5677 17.5794 98.3906 19.0586C99.8073 20.2148 101.432 20.793 103.266 20.793C105.339 20.793 107.104 20.043 108.562 18.543C110.021 17.043 110.75 15.194 110.75 12.9961C110.75 10.8086 110.016 8.95964 108.547 7.44922C107.078 5.92839 105.292 5.16797 103.188 5.16797Z" fill="white"/>
<path d="M78.2812 1.46484H82.6562V20.2773H89.0312V24.4492H78.2812V1.46484Z" fill="white"/>
<path d="M61.6406 1.46484H74.1875V5.74609H65.9844V9.90234H74.1875V14.1055H65.9844V20.1523H74.1875V24.4492H61.6406V1.46484Z" fill="white"/>
<path d="M37.4688 1.46484H41.9688L47.75 17.793L53.6094 1.46484H58.1094L49.8281 24.4492H45.6094L37.4688 1.46484Z" fill="white"/>
<path d="M22.5781 1.46484H35.125V5.74609H26.9219V9.90234H35.125V14.1055H26.9219V20.1523H35.125V24.4492H22.5781V1.46484Z" fill="white"/>
<path d="M0.171875 1.46484H5.35938C8.70312 1.46484 11.1875 1.88151 12.8125 2.71484C14.4375 3.53776 15.776 4.88151 16.8281 6.74609C17.8802 8.61068 18.4062 10.7878 18.4062 13.2773C18.4062 15.0482 18.1094 16.6784 17.5156 18.168C16.9323 19.6471 16.1198 20.8763 15.0781 21.8555C14.0469 22.8346 12.9271 23.5117 11.7188 23.8867C10.5104 24.2617 8.41667 24.4492 5.4375 24.4492H0.171875V1.46484ZM4.53125 5.68359V20.168H6.5625C8.5625 20.168 10.0104 19.9388 10.9062 19.4805C11.8125 19.0221 12.5521 18.2513 13.125 17.168C13.6979 16.0846 13.9844 14.7513 13.9844 13.168C13.9844 10.7305 13.3021 8.83984 11.9375 7.49609C10.7083 6.28776 8.73438 5.68359 6.01562 5.68359H4.53125Z" fill="white"/>
</svg>
