<svg width="81" height="17" viewBox="0 0 81 17" fill="none" xmlns="http://www.w3.org/2000/svg">
<path d="M67.5938 0.647461H70.5908L73.0615 6.97461L77.5518 0.647461H80.957L74.2109 10.1328L73.3623 16.4492H70.3975L71.2676 10.1328L67.5938 0.647461Z" fill="white"/>
<path d="M58.5596 0.25C60.7295 0.25 62.5199 0.948242 63.9307 2.34473C65.3415 3.74121 66.0469 5.51367 66.0469 7.66211C66.0469 9.30925 65.6279 10.8633 64.79 12.3242C63.9593 13.778 62.8493 14.8952 61.46 15.6758C60.0778 16.4564 58.488 16.8467 56.6904 16.8467C54.4417 16.8467 52.6442 16.1807 51.2979 14.8486C49.9587 13.5166 49.2891 11.762 49.2891 9.58496C49.2891 7.11426 50.0911 4.99089 51.6953 3.21484C53.4857 1.23828 55.7738 0.25 58.5596 0.25ZM58.4521 3.05371C57.3206 3.05371 56.2858 3.32943 55.3477 3.88086C54.4167 4.42513 53.6647 5.21289 53.0918 6.24414C52.5189 7.26823 52.2324 8.32812 52.2324 9.42383C52.2324 10.7201 52.6299 11.8193 53.4248 12.7217C54.2197 13.624 55.362 14.0752 56.8516 14.0752C58.5775 14.0752 60.042 13.4665 61.2451 12.249C62.4554 11.0316 63.0605 9.55273 63.0605 7.8125C63.0605 6.37305 62.6344 5.22005 61.7822 4.35352C60.9372 3.48698 59.8271 3.05371 58.4521 3.05371Z" fill="white"/>
<path d="M41.6299 0.647461H44.6055L42.8223 13.7314H47.7314L47.3877 16.4492H39.4922L41.6299 0.647461Z" fill="white"/>
<path d="M29.2764 0.647461H32.0586C33.7487 0.647461 34.9411 0.794271 35.6357 1.08789C36.4951 1.45312 37.1468 1.96159 37.5908 2.61328C38.0348 3.26497 38.2568 4.02767 38.2568 4.90137C38.2568 5.861 37.9954 6.73112 37.4727 7.51172C36.957 8.28516 36.2624 8.85091 35.3887 9.20898C34.515 9.5599 33.0612 9.74967 31.0273 9.77832L30.125 16.4492H27.1494L29.2764 0.647461ZM31.3818 6.98535C33.0003 6.97819 34.0566 6.8099 34.5508 6.48047C35.0449 6.15104 35.292 5.66048 35.292 5.00879C35.292 4.64355 35.1953 4.33561 35.002 4.08496C34.8086 3.83431 34.5221 3.65885 34.1426 3.55859C33.763 3.45833 33.0111 3.4082 31.8867 3.4082L31.3818 6.98535Z" fill="white"/>
<path d="M17.5674 0.647461H26.1504L25.7852 3.45117H20.1992L19.748 6.7168H25.3555L25.001 9.49902H19.3936L18.835 13.6885H24.4746L24.0986 16.4492H15.4941L17.5674 0.647461Z" fill="white"/>
<path d="M2.39941 0.647461H4.91309C7.26921 0.647461 9.02018 0.926758 10.166 1.48535C11.319 2.03678 12.2536 2.9069 12.9697 4.0957C13.693 5.28451 14.0547 6.65592 14.0547 8.20996C14.0547 9.80697 13.6715 11.2751 12.9053 12.6143C12.1462 13.9463 11.1865 14.9202 10.0264 15.5361C8.86621 16.1449 7.25488 16.4492 5.19238 16.4492H0.283203L2.39941 0.647461ZM5.00977 3.42969L3.64551 13.6885H4.62305C6.12695 13.6885 7.21549 13.5632 7.88867 13.3125C8.83398 12.9544 9.5931 12.3421 10.166 11.4756C10.7389 10.609 11.0254 9.53841 11.0254 8.26367C11.0254 7.2181 10.8213 6.3444 10.4131 5.64258C10.012 4.93359 9.44271 4.38932 8.70508 4.00977C7.96745 3.62305 6.98633 3.42969 5.76172 3.42969H5.00977Z" fill="white"/>
</svg>
