<svg width="101" height="17" viewBox="0 0 101 17" fill="none" xmlns="http://www.w3.org/2000/svg">
<path d="M88.8193 0.425781H91.8701V6.3877H97.1553V0.425781H100.195V16.2275H97.1553V9.29883H91.8701V16.2275H88.8193V0.425781Z" fill="white"/>
<path d="M85.6611 2.57422L83.4375 4.54004C82.6569 3.4515 81.862 2.90723 81.0527 2.90723C80.6589 2.90723 80.3366 3.01465 80.0859 3.22949C79.8353 3.43717 79.71 3.6735 79.71 3.93848C79.71 4.20345 79.7995 4.4541 79.9785 4.69043C80.222 5.00553 80.9561 5.68229 82.1807 6.7207C83.3265 7.68034 84.0212 8.28548 84.2646 8.53613C84.8734 9.15202 85.3031 9.74284 85.5537 10.3086C85.8115 10.8672 85.9404 11.4795 85.9404 12.1455C85.9404 13.4417 85.4928 14.5124 84.5977 15.3574C83.7025 16.2025 82.5352 16.625 81.0957 16.625C79.9714 16.625 78.9902 16.3493 78.1523 15.7979C77.3216 15.2464 76.609 14.3799 76.0146 13.1982L78.5391 11.6729C79.2982 13.0693 80.1719 13.7676 81.1602 13.7676C81.6758 13.7676 82.109 13.6172 82.46 13.3164C82.8109 13.0156 82.9863 12.6683 82.9863 12.2744C82.9863 11.9163 82.8538 11.5583 82.5889 11.2002C82.3239 10.8421 81.7402 10.2943 80.8379 9.55664C79.1191 8.153 78.0091 7.07161 77.5078 6.3125C77.0065 5.54622 76.7559 4.78353 76.7559 4.02441C76.7559 2.92871 77.1712 1.99056 78.002 1.20996C78.8398 0.422201 79.8711 0.0283203 81.0957 0.0283203C81.8835 0.0283203 82.6318 0.210938 83.3408 0.576172C84.057 0.941406 84.8304 1.60742 85.6611 2.57422Z" fill="white"/>
<path d="M70.998 0.425781H73.9844V16.2275H70.998V0.425781Z" fill="white"/>
<path d="M61.5234 0.425781H64.5312V13.3594H68.9141V16.2275H61.5234V0.425781Z" fill="white"/>
<path d="M48.7617 16.2275V0.425781H51.2432C52.6826 0.425781 53.7354 0.51888 54.4014 0.705078C55.3467 0.955729 56.0986 1.42122 56.6572 2.10156C57.2158 2.7819 57.4951 3.58398 57.4951 4.50781C57.4951 5.10938 57.3662 5.65723 57.1084 6.15137C56.8577 6.63835 56.446 7.09668 55.873 7.52637C56.8327 7.97754 57.5345 8.54329 57.9785 9.22363C58.4225 9.89681 58.6445 10.6953 58.6445 11.6191C58.6445 12.5072 58.4154 13.3164 57.957 14.0469C57.4987 14.7773 56.9079 15.3252 56.1846 15.6904C55.4613 16.0485 54.4622 16.2275 53.1875 16.2275H48.7617ZM51.7695 3.29395V6.62402H52.4248C53.1553 6.62402 53.696 6.47005 54.0469 6.16211C54.4049 5.85417 54.584 5.43522 54.584 4.90527C54.584 4.41113 54.4157 4.02083 54.0791 3.73438C53.7425 3.44076 53.2305 3.29395 52.543 3.29395H51.7695ZM51.7695 9.30957V13.3594H52.5215C53.7676 13.3594 54.6055 13.2018 55.0352 12.8867C55.472 12.5716 55.6904 12.1133 55.6904 11.5117C55.6904 10.8314 55.4362 10.2943 54.9277 9.90039C54.4193 9.50651 53.5742 9.30957 52.3926 9.30957H51.7695Z" fill="white"/>
<path d="M37.2891 0.425781H40.3398L46.4199 16.2275H43.2939L42.0586 12.9727H35.6133L34.3242 16.2275H31.1982L37.2891 0.425781ZM38.8359 4.61523L36.7305 10.04H40.9307L38.8359 4.61523Z" fill="white"/>
<path d="M21.6807 0.425781H30.4141V3.39062H27.5352V16.2275H24.4844V3.39062H21.6807V0.425781Z" fill="white"/>
<path d="M20.0693 2.57422L17.8457 4.54004C17.0651 3.4515 16.2702 2.90723 15.4609 2.90723C15.0671 2.90723 14.7448 3.01465 14.4941 3.22949C14.2435 3.43717 14.1182 3.6735 14.1182 3.93848C14.1182 4.20345 14.2077 4.4541 14.3867 4.69043C14.6302 5.00553 15.3643 5.68229 16.5889 6.7207C17.7347 7.68034 18.4294 8.28548 18.6729 8.53613C19.2816 9.15202 19.7113 9.74284 19.9619 10.3086C20.2197 10.8672 20.3486 11.4795 20.3486 12.1455C20.3486 13.4417 19.901 14.5124 19.0059 15.3574C18.1107 16.2025 16.9434 16.625 15.5039 16.625C14.3796 16.625 13.3984 16.3493 12.5605 15.7979C11.7298 15.2464 11.0173 14.3799 10.4229 13.1982L12.9473 11.6729C13.7064 13.0693 14.5801 13.7676 15.5684 13.7676C16.084 13.7676 16.5173 13.6172 16.8682 13.3164C17.2191 13.0156 17.3945 12.6683 17.3945 12.2744C17.3945 11.9163 17.262 11.5583 16.9971 11.2002C16.7321 10.8421 16.1484 10.2943 15.2461 9.55664C13.5273 8.153 12.4173 7.07161 11.916 6.3125C11.4147 5.54622 11.1641 4.78353 11.1641 4.02441C11.1641 2.92871 11.5794 1.99056 12.4102 1.20996C13.248 0.422201 14.2793 0.0283203 15.5039 0.0283203C16.2917 0.0283203 17.04 0.210938 17.749 0.576172C18.4652 0.941406 19.2386 1.60742 20.0693 2.57422Z" fill="white"/>
<path d="M0.34668 0.425781H8.97266V3.36914H3.33301V6.22656H8.97266V9.11621H3.33301V13.2734H8.97266V16.2275H0.34668V0.425781Z" fill="white"/>
</svg>
