<svg width="142" height="37" viewBox="0 0 142 37" fill="none" xmlns="http://www.w3.org/2000/svg">
<path d="M122.57 0.972656H141.391V7.39453H129.086V13.6289H141.391V19.9336H129.086V29.0039H141.391V35.4492H122.57V0.972656Z" fill="white"/>
<path d="M101.406 0.972656H107.969V29.1914H117.531V35.4492H101.406V0.972656Z" fill="white"/>
<path d="M76.375 0.972656H83.0312L96.2969 35.4492H89.4766L86.7812 28.3477H72.7188L69.9062 35.4492H63.0859L76.375 0.972656ZM79.75 10.1133L75.1562 21.9492H84.3203L79.75 10.1133Z" fill="white"/>
<path d="M60.1094 7.04297L55.5156 11.4258C52.3906 8.12891 48.875 6.48047 44.9688 6.48047C41.6719 6.48047 38.8906 7.60547 36.625 9.85547C34.375 12.1055 33.25 14.8789 33.25 18.1758C33.25 20.4727 33.75 22.5117 34.75 24.293C35.75 26.0742 37.1641 27.4727 38.9922 28.4883C40.8203 29.5039 42.8516 30.0117 45.0859 30.0117C46.9922 30.0117 48.7344 29.6602 50.3125 28.957C51.8906 28.2383 53.625 26.9414 55.5156 25.0664L59.9688 29.707C57.4219 32.1914 55.0156 33.918 52.75 34.8867C50.4844 35.8398 47.8984 36.3164 44.9922 36.3164C39.6328 36.3164 35.2422 34.6211 31.8203 31.2305C28.4141 27.8242 26.7109 23.4648 26.7109 18.1523C26.7109 14.7148 27.4844 11.6602 29.0312 8.98828C30.5938 6.31641 32.8203 4.16797 35.7109 2.54297C38.6172 0.917969 41.7422 0.105469 45.0859 0.105469C47.9297 0.105469 50.6641 0.707031 53.2891 1.91016C55.9297 3.11328 58.2031 4.82422 60.1094 7.04297Z" fill="white"/>
<path d="M21.5078 5.66016L16.6562 9.94922C14.9531 7.57422 13.2188 6.38672 11.4531 6.38672C10.5938 6.38672 9.89062 6.62109 9.34375 7.08984C8.79688 7.54297 8.52344 8.05859 8.52344 8.63672C8.52344 9.21484 8.71875 9.76172 9.10938 10.2773C9.64062 10.9648 11.2422 12.4414 13.9141 14.707C16.4141 16.8008 17.9297 18.1211 18.4609 18.668C19.7891 20.0117 20.7266 21.3008 21.2734 22.5352C21.8359 23.7539 22.1172 25.0898 22.1172 26.543C22.1172 29.3711 21.1406 31.707 19.1875 33.5508C17.2344 35.3945 14.6875 36.3164 11.5469 36.3164C9.09375 36.3164 6.95312 35.7148 5.125 34.5117C3.3125 33.3086 1.75781 31.418 0.460938 28.8398L5.96875 25.5117C7.625 28.5586 9.53125 30.082 11.6875 30.082C12.8125 30.082 13.7578 29.7539 14.5234 29.0977C15.2891 28.4414 15.6719 27.6836 15.6719 26.8242C15.6719 26.043 15.3828 25.2617 14.8047 24.4805C14.2266 23.6992 12.9531 22.5039 10.9844 20.8945C7.23438 17.832 4.8125 15.4727 3.71875 13.8164C2.625 12.1445 2.07812 10.4805 2.07812 8.82422C2.07812 6.43359 2.98438 4.38672 4.79688 2.68359C6.625 0.964844 8.875 0.105469 11.5469 0.105469C13.2656 0.105469 14.8984 0.503906 16.4453 1.30078C18.0078 2.09766 19.6953 3.55078 21.5078 5.66016Z" fill="white"/>
</svg>
